<svg width="31" height="32" viewBox="0 0 31 32" fill="none" xmlns="http://www.w3.org/2000/svg">
<path fill-rule="evenodd" clip-rule="evenodd" d="M13.9274 10.8001H19.8382C19.9994 10.8001 20.1501 10.8392 20.2832 10.9101C20.1466 10.5234 19.7822 10.2466 19.3547 10.2466H16.4046L12.137 5.92509C11.4783 5.23322 11.5413 4.30008 12.2211 3.59756L15.378 0.397204C15.9035 -0.135006 16.7619 -0.135006 17.2875 0.397204L30.6087 13.8869C31.1343 14.4192 31.1343 15.2884 30.6087 15.8206L17.2875 29.3104C16.7619 29.8426 15.9035 29.8426 15.378 29.3104L14.0115 27.9266L20.2552 21.604C20.7807 21.0718 20.7807 20.2025 20.2552 19.6703L18.3982 17.7898L20.1746 15.991C20.7001 15.4587 20.7001 14.5895 20.1746 14.0573L18.9272 12.7941H13.9274C13.3843 12.7941 12.9428 12.3435 12.9428 11.7971C12.9428 11.2472 13.3878 10.8001 13.9274 10.8001ZM3.56682 12.0987C3.04826 12.6345 3.00271 13.3441 3.50375 13.8728L4.3026 14.6817H6.32777C6.75523 14.6817 7.12312 14.962 7.25626 15.3488C7.14414 15.3026 7.02151 15.2778 6.89538 15.2778H0.984553C0.441472 15.2778 0 15.7284 0 16.2748C0 16.8247 0.444976 17.2718 0.984553 17.2718H6.86384L9.6248 20.0677C10.0242 20.4722 10.0242 21.1356 9.6248 21.5401L3.62638 27.6144C3.15337 28.0757 3.0833 28.6859 3.51776 29.2075L5.97039 31.6911C6.36982 32.0956 7.02502 32.0956 7.42444 31.6911L17.5783 21.4088C17.9777 21.0044 17.9777 20.3409 17.5783 19.9364L7.42444 9.65411C7.02502 9.24963 6.36982 9.24963 5.97039 9.65411L3.56331 12.0916L3.56682 12.0987ZM4.62144 18.3611H6.59405C7.13714 18.3611 7.57861 18.8117 7.57861 19.3581C7.57861 19.908 7.13363 20.3551 6.59405 20.3551H4.62144C4.07836 20.3551 3.63689 19.9045 3.63689 19.3581C3.63689 18.8081 4.08187 18.3611 4.62144 18.3611ZM10.2485 8.09296C9.70538 8.09296 9.26391 8.54356 9.26391 9.08996C9.26391 9.63991 9.70889 10.087 10.2485 10.087H12.659C13.2021 10.087 13.6436 9.63637 13.6436 9.08996C13.6436 8.54001 13.1986 8.09296 12.659 8.09296H10.2485Z" fill="#1732BC"/>
</svg>
